<svg xmlns="http://www.w3.org/2000/svg" width="64" height="64"><path style="stroke:none;fill-rule:nonzero;fill:#4a61dd;fill-opacity:1" d="M36.2 41.035c.304-1.539 1-2.86 2.054-3.883a7.31 7.31 0 0 1 1.629-1.175H24.09c1.937 1.035 3.246 2.793 3.707 5.058Zm0 0"/><path style="stroke:none;fill-rule:nonzero;fill:#4a61dd;fill-opacity:1" d="M11.137 35.977a2.533 2.533 0 0 0-2.532 2.53 2.536 2.536 0 0 0 2.532 2.532h.648c.305-1.539 1-2.863 2.055-3.883a7.38 7.38 0 0 1 2.547-1.597V9.87h31.226v25.7c2.43.937 4.07 2.867 4.598 5.464h.652a2.53 2.53 0 1 0 0-5.058h-.636V9.87h.636a2.53 2.53 0 1 0 0-5.059H34.31V2.31A2.308 2.308 0 0 0 32 0a2.305 2.305 0 0 0-2.305 2.309v2.503H11.137a2.533 2.533 0 0 0-2.532 2.532 2.532 2.532 0 0 0 2.532 2.527h.636v26.106Zm0 0"/><path style="stroke:none;fill-rule:nonzero;fill:#4a61dd;fill-opacity:1" d="M24.645 29.68v-8.23a1.731 1.731 0 0 0-3.46 0l-.001 8.23a1.731 1.731 0 0 0 3.46 0Zm6.058 0V15.39c0-.956-.773-1.73-1.73-1.73s-1.73.774-1.73 1.73v14.29c0 .957.773 1.73 1.73 1.73s1.73-.773 1.73-1.73Zm6.055 0V19.023a1.731 1.731 0 0 0-3.461 0V29.68a1.731 1.731 0 0 0 3.46 0Zm6.058 0V17.207a1.731 1.731 0 0 0-3.46 0V29.68a1.731 1.731 0 0 0 3.46 0Zm-23.03 21.922h.023c3.722.054 5.988-3.204 6.046-8.579.04-3.73-2.273-5.863-6.039-5.96v-.004c-.007 0-.011.004-.02.004v-.004s-.003 0-.003.004c-.004-.004-.008-.004-.008-.004v.004c-.008 0-.012-.004-.015-.004v.004c-3.77.097-6.082 2.23-6.043 5.96.058 5.375 2.32 8.633 6.046 8.579h.012Zm24.413 0h.024c3.726.054 5.988-3.204 6.047-8.579.039-3.73-2.274-5.863-6.04-5.96v-.004c-.007 0-.011.004-.015.004v-.004c-.004 0-.008 0-.008.004-.004-.004-.008-.004-.008-.004v.004c-.008 0-.011-.004-.015-.004v.004c-3.77.097-6.079 2.23-6.043 5.96.058 5.375 2.324 8.633 6.047 8.579h.011Zm10.735 4.078-6.059-2.414-1.418-1.196a.948.948 0 0 0-1.277.051l-1.973 1.961-1.977-1.96a.943.943 0 0 0-1.273-.052l-1.422 1.196-6.055 2.414c-.73.293-1.187 1.437-1.48 2.797-.297-1.36-.754-2.508-1.48-2.797l-6.06-2.414-1.417-1.196a.948.948 0 0 0-1.277.051l-1.973 1.961-1.977-1.96a.943.943 0 0 0-1.273-.052l-1.422 1.196-6.055 2.414c-1.953.777-1.949 7.687-2.117 8.32h50.102c-.168-.633-.168-7.543-2.117-8.32Zm0 0"/></svg>