<svg xmlns="http://www.w3.org/2000/svg" width="64" height="64"><path style="stroke:none;fill-rule:nonzero;fill:#4a61dd;fill-opacity:1" d="M42.777 7.703h2.575v2.578h-2.575Zm4.032 0h2.578v2.578h-2.578Zm4.035 0h2.578v2.578h-2.578ZM17.172 20.57h24.562v3.918H17.172Zm0 0"/><path style="stroke:none;fill-rule:nonzero;fill:#4a61dd;fill-opacity:1" d="M58.906 36.637V1.477H0v50.43h35.102l.03.1a14.85 14.85 0 0 0 5.24 7.54 14.612 14.612 0 0 0 8.886 2.976C57.387 62.523 64 55.91 64 47.781c0-4.332-1.844-8.34-5.094-11.144ZM41.176 5.395h13.812v7.058H41.176Zm-37.258 0h33.34v7.058H3.918Zm31.273 37.96-.023.083c-.043.136-.082.273-.121.41l-.035.125a19.01 19.01 0 0 0-.13.515c-.073.336-.14.676-.19 1.016-.012.059-.016.117-.028.176a31.12 31.12 0 0 0-.066.54c-.012.104-.02.214-.028.32-.008.065-.011.132-.015.198-.012.117-.016.235-.024.352 0 .058-.004.113-.008.172-.003.172-.007.347-.007.52v.206H3.918V16.371h51.07v17.82a21.215 21.215 0 0 0-.445-.18l-.105-.034a12.34 12.34 0 0 0-.493-.18c-.011-.004-.023-.004-.035-.008a9.67 9.67 0 0 0-.476-.152 23.634 23.634 0 0 0-.594-.16l-.094-.024c-.164-.039-.324-.074-.488-.11-.012-.003-.028-.003-.04-.007a11.91 11.91 0 0 0-.515-.094c-.039-.008-.074-.012-.113-.02a13.032 13.032 0 0 0-.586-.077 8.03 8.03 0 0 0-.441-.047v-4.532H8.487V38.98H37.43a14.593 14.593 0 0 0-2.239 4.375Zm11.454-10.87v.788c-.239.04-.473.09-.708.145h-.011l-.332.082c-.008.004-.02.004-.028.008a9.298 9.298 0 0 0-.312.086.116.116 0 0 0-.04.008 5.502 5.502 0 0 1-.214.062c-.02.008-.04.012-.059.02-.007.004-.015.004-.023.007-.02.004-.04.012-.055.016-.093.027-.183.059-.277.09l-.07.023-.09.032-.07.023-.098.035c-.028.012-.055.02-.082.031-.098.036-.192.07-.285.106l-.051.023a8.43 8.43 0 0 0-.434.18c-.047.02-.093.04-.14.063-.106.042-.207.093-.309.14-.105.05-.215.102-.32.156a20.417 20.417 0 0 0-.832.45H12.406v-2.575ZM52.39 58.14a10.694 10.694 0 0 1-6.316-.023v-4.169h6.316Zm-6.043-8.11 1.816-2.613H50.3l1.816 2.613Zm9.96 5.953v-6.789l-7.074-10.18-7.078 10.18v6.735a10.726 10.726 0 0 1-3.722-8.149c0-.125.004-.254.007-.383 0-.046.004-.093.008-.14 0-.078.008-.156.012-.235.004-.058.008-.12.016-.18.003-.062.007-.12.015-.179l.024-.219c.004-.035.011-.074.015-.113a10.786 10.786 0 0 1 4.887-7.664 11.01 11.01 0 0 1 1.348-.734c.02-.012.039-.02.054-.028.153-.066.305-.133.461-.195.145-.059.293-.11.446-.164.054-.02.109-.035.164-.055.093-.027.187-.058.28-.086.071-.023.142-.039.212-.058.082-.024.16-.043.238-.067.078-.02.16-.035.238-.054l.215-.047.254-.047c.067-.012.133-.024.203-.035.086-.012.176-.028.266-.04l.183-.023c.208-.023.415-.043.625-.055.032-.003.067-.003.102-.007.04 0 .074-.004.113-.004a10.71 10.71 0 0 1 6.946 2.168 10.742 10.742 0 0 1 4.316 8.644c0 3.278-1.465 6.215-3.773 8.203Zm0 0"/></svg>