<svg xmlns="http://www.w3.org/2000/svg" width="64" height="64"><path style="stroke:none;fill-rule:nonzero;fill:#4a61dd;fill-opacity:1" d="M32 .777c-17.68 0-32 14.328-32 32 0 14.145 9.168 26.133 21.879 30.36 1.601.304 2.187-.688 2.187-1.535 0-.762-.027-2.774-.039-5.442-8.902 1.93-10.78-4.293-10.78-4.293-1.454-3.695-3.56-4.68-3.56-4.68-2.898-1.984.223-1.945.223-1.945 3.215.223 4.902 3.297 4.902 3.297 2.856 4.895 7.493 3.48 9.32 2.66.29-2.07 1.114-3.48 2.028-4.277-7.105-.8-14.574-3.555-14.574-15.817 0-3.492 1.238-6.343 3.293-8.585-.363-.81-1.441-4.063.277-8.47 0 0 2.68-.859 8.801 3.282 2.559-.715 5.281-1.066 8-1.082 2.719.016 5.441.367 8 1.082 6.082-4.14 8.762-3.281 8.762-3.281 1.718 4.406.636 7.66.32 8.469 2.04 2.242 3.277 5.093 3.277 8.585 0 12.293-7.48 15-14.597 15.79 1.117.957 2.16 2.921 2.16 5.917 0 4.286-.043 7.723-.043 8.762 0 .84.562 1.84 2.203 1.524C54.84 58.898 64 46.898 64 32.778c0-17.673-14.328-32-32-32"/></svg>