<svg xmlns="http://www.w3.org/2000/svg" width="75" height="75"><path style="stroke:none;fill-rule:nonzero;fill:#f7df1e;fill-opacity:1" d="M0 0h75v75H0Zm68.855 57.113c-.546-3.422-2.773-6.297-9.382-8.98-2.301-1.078-4.856-1.828-5.618-3.563-.285-1.03-.328-1.593-.144-2.203.469-2.015 2.86-2.625 4.734-2.062 1.22.375 2.344 1.312 3.051 2.812 3.23-2.11 3.23-2.11 5.484-3.515-.843-1.313-1.261-1.875-1.832-2.438-1.968-2.203-4.59-3.328-8.855-3.23l-2.203.277c-2.113.516-4.125 1.64-5.344 3.14-3.562 4.036-2.535 11.067 1.777 13.973 4.266 3.188 10.504 3.887 11.301 6.89.75 3.657-2.719 4.829-6.144 4.407-2.532-.562-3.938-1.832-5.485-4.176l-5.718 3.285c.656 1.5 1.406 2.153 2.53 3.465 5.438 5.489 19.032 5.207 21.473-3.136.09-.282.75-2.204.23-5.157Zm-28.07-22.64h-7.027c0 6.054-.028 12.074-.028 18.14 0 3.848.2 7.383-.43 8.473-1.03 2.152-3.687 1.875-4.894 1.5-1.238-.613-1.867-1.457-2.593-2.672-.196-.328-.344-.613-.399-.613l-5.703 3.515c.953 1.97 2.344 3.66 4.14 4.739 2.672 1.593 6.262 2.11 10.02 1.265 2.45-.703 4.559-2.156 5.66-4.406 1.594-2.906 1.258-6.469 1.242-10.457.036-6.418 0-12.84 0-19.309Zm0 0"/></svg>