<svg xmlns="http://www.w3.org/2000/svg" width="64" height="64"><path style="stroke:none;fill-rule:nonzero;fill:#4a61dd;fill-opacity:1" d="M54.523 54.54h-9.476V39.687c0-3.54-.07-8.098-4.938-8.098-4.941 0-5.695 3.851-5.695 7.836v15.113h-9.477V24h9.102v4.164h.125c1.27-2.402 4.363-4.934 8.984-4.934 9.606 0 11.38 6.32 11.38 14.547V54.54ZM14.23 19.82c-3.05 0-5.5-2.468-5.5-5.504a5.499 5.499 0 0 1 5.5-5.504 5.505 5.505 0 0 1 0 11.008Zm4.754 34.72H9.48V24h9.504ZM59.266 0H4.723C2.113 0 0 2.063 0 4.61v54.78C0 61.938 2.113 64 4.723 64h54.535C61.868 64 64 61.937 64 59.39V4.61C64 2.061 61.867 0 59.258 0Zm0 0"/></svg>