<svg xmlns="http://www.w3.org/2000/svg" width="271" height="75" viewBox="0 0 267 75"><path style="stroke:none;fill-rule:nonzero;fill:#009;fill-opacity:1" d="M143.48 33.852a27.91 27.91 0 0 1 3.141.168 8.484 8.484 0 0 1-3.965-7.208V2.613c0-1.011 0-1.867-1.066-1.867h-6.574a1.643 1.643 0 0 0-1.164.602c-.29.351-.418.812-.36 1.265v24.66c.028 2.668.688 5.29 1.922 7.649a29.776 29.776 0 0 1 8.066-1.07Zm61.7 0V8.395h5.597a12.513 12.513 0 0 1 9.102 3.843 12.585 12.585 0 0 1 3.492 9.266 12.337 12.337 0 0 1-3.437 9.101 12.268 12.268 0 0 1-8.946 3.766 43.005 43.005 0 0 1 12.325 5.078 19.897 19.897 0 0 0 9.605-17.683 21.196 21.196 0 0 0-6.344-14.993A21.062 21.062 0 0 0 211.492.746H199.02c-.961 0-3.051.887-3.051 1.867v32.125c2.844-.625 5.75-.91 8.66-.855.367-.031-.973-.031.55-.031Zm-36.598-6.579V2.613c0-.98 0-1.867-.977-1.867h-6.574a1.683 1.683 0 0 0-1.523 1.867v24.309c.152 4.09-2.817 7.629-6.863 8.168 4.117 1.285 7.44 3.351 11.085 4.894 3.493-3.074 4.852-7.664 4.852-12.71Zm9.148 14.61c4.575-.383 7.625-1.531 9.149-2.785V2.996c0-1.012-.137-2.25-1.14-2.25h-7.079c-1.004 0-.93 1.238-.93 2.25ZM64.887 39.969v-5.094a1.958 1.958 0 0 0-1.785-2.004H48.113V2.613a1.88 1.88 0 0 0-1.77-1.867h-5.445a1.971 1.971 0 0 0-1.937 1.867v34.48a29.272 29.272 0 0 0 15.25 4.942c3.664.07 7.3-.633 10.676-2.066ZM78.609 2.996a2.76 2.76 0 0 0-2.363-2.25h-4.574a2.598 2.598 0 0 0-2.211 2.25v34.098a27.512 27.512 0 0 1 9.148-2.828Zm171.676 64.969a28.568 28.568 0 0 1-28.836 0 31.335 31.335 0 0 0-31.457 0 28.568 28.568 0 0 1-28.836 0 31.324 31.324 0 0 0-31.46 0 26.126 26.126 0 0 1-14.41 3.902 26.19 26.19 0 0 1-14.411-3.902 28.901 28.901 0 0 0-15.723-4.235 28.816 28.816 0 0 0-15.722 4.235 26.126 26.126 0 0 1-14.41 3.902 26.126 26.126 0 0 1-14.41-3.902 28.816 28.816 0 0 0-15.723-4.235 28.81 28.81 0 0 0-15.739 4.235A27.543 27.543 0 0 1 0 71.437v2.833a29.648 29.648 0 0 0 10.46-3.856 26.19 26.19 0 0 1 14.411-3.902 26.19 26.19 0 0 1 14.41 3.902 28.829 28.829 0 0 0 15.723 4.238 28.805 28.805 0 0 0 15.738-4.238 26.19 26.19 0 0 1 14.41-3.902 26.19 26.19 0 0 1 14.41 3.902 28.896 28.896 0 0 0 15.723 4.238 28.829 28.829 0 0 0 15.723-4.238 28.568 28.568 0 0 1 28.836 0 31.316 31.316 0 0 0 31.457 0 28.575 28.575 0 0 1 28.84 0 31.316 31.316 0 0 0 31.457 0 26.19 26.19 0 0 1 14.41-3.902H267v-2.739h-.992a28.914 28.914 0 0 0-15.723 4.192Zm0 0"/><path style="stroke:none;fill-rule:nonzero;fill:#009;fill-opacity:1" d="M266.008 41.5a28.76 28.76 0 0 0-15.723 4.3 28.53 28.53 0 0 1-28.836 0 31.335 31.335 0 0 0-31.457 0 28.586 28.586 0 0 1-28.836 0 31.305 31.305 0 0 0-31.46 0c-1.036.552-2.06 1.102-3.126 1.528l-6.101-8.64a21.618 21.618 0 0 0 7.87-16.493c-.058-9.343-5.991-17.629-14.796-20.668a21.884 21.884 0 0 0-24.336 7.16 22.06 22.06 0 0 0-1.324 25.41c10.308 1.423 12.105 7.434 24.398 7.801l4.07 7.649h-1.003a26.171 26.171 0 0 1-14.414-3.902 28.879 28.879 0 0 0-15.72-4.235 28.816 28.816 0 0 0-15.722 4.235 26.134 26.134 0 0 1-14.41 3.902 26.139 26.139 0 0 1-14.414-3.902 28.812 28.812 0 0 0-15.719-4.235 28.78 28.78 0 0 0-15.8 4.406A27.534 27.534 0 0 1 0 49.301v2.832c3.7-.617 7.25-1.93 10.46-3.871a26.19 26.19 0 0 1 14.411-3.903 26.19 26.19 0 0 1 14.41 3.903A28.829 28.829 0 0 0 55.004 52.5a28.82 28.82 0 0 0 15.723-4.238 26.19 26.19 0 0 1 14.41-3.903 26.19 26.19 0 0 1 14.41 3.903 28.914 28.914 0 0 0 15.738 4.238 28.829 28.829 0 0 0 15.723-4.238 28.568 28.568 0 0 1 28.836 0 31.316 31.316 0 0 0 31.457 0 28.575 28.575 0 0 1 28.84 0 31.316 31.316 0 0 0 31.457 0 26.19 26.19 0 0 1 14.41-3.903H267V41.5Zm-159.63-6.332c-6.948-.242-12.456-5.961-12.456-12.938 0-6.972 5.508-12.69 12.457-12.933 7.094.117 12.805 5.875 12.887 12.988-.028 7.121-5.79 12.883-12.887 12.883Zm0 0"/><path style="stroke:none;fill-rule:nonzero;fill:#009;fill-opacity:1" d="M250.285 56.89a28.568 28.568 0 0 1-28.836 0 31.316 31.316 0 0 0-31.457 0 28.568 28.568 0 0 1-28.836 0 31.305 31.305 0 0 0-31.46 0 26.19 26.19 0 0 1-14.41 3.903 26.19 26.19 0 0 1-14.411-3.902 28.905 28.905 0 0 0-15.723-4.239 28.82 28.82 0 0 0-15.722 4.239 26.19 26.19 0 0 1-14.41 3.902 26.19 26.19 0 0 1-14.41-3.902 28.82 28.82 0 0 0-15.723-4.239 28.814 28.814 0 0 0-15.739 4.239A27.627 27.627 0 0 1 0 60.379v2.828c3.7-.613 7.25-1.926 10.46-3.867a26.126 26.126 0 0 1 14.411-3.903 26.126 26.126 0 0 1 14.41 3.903 28.825 28.825 0 0 0 15.723 4.234 28.816 28.816 0 0 0 15.723-4.234 26.126 26.126 0 0 1 14.41-3.903 26.126 26.126 0 0 1 14.41 3.903 28.91 28.91 0 0 0 15.738 4.234 28.825 28.825 0 0 0 15.723-4.234 28.568 28.568 0 0 1 28.836 0 31.335 31.335 0 0 0 31.457 0 28.575 28.575 0 0 1 28.84 0 31.335 31.335 0 0 0 31.457 0 26.126 26.126 0 0 1 14.41-3.903H267V52.7h-.992a28.914 28.914 0 0 0-15.723 4.192Zm0 0"/></svg>