<svg xmlns="http://www.w3.org/2000/svg" width="16" height="16"><path style="stroke:none;fill-rule:nonzero;fill:#4a61dd;fill-opacity:1" d="M14.77 2H1.23C.555 2 0 2.555 0 3.234v9.532C0 13.446.555 14 1.23 14h13.54c.675 0 1.23-.555 1.23-1.234V3.234C16 2.554 15.445 2 14.77 2Zm-.18.914L8.086 8.477 1.578 2.914Zm.5 9.852c0 .175-.145.32-.32.32H1.23a.322.322 0 0 1-.32-.32V3.539l6.88 5.883c0 .004.007.008.01.008.005.004.013.008.013.011a.17.17 0 0 0 .027.016c.004.004.008.004.012.008.011.008.027.012.039.02.004 0 .007.003.011.003.012.004.02.012.035.016h.012c.012.004.02.008.031.008.004 0 .008.004.012.004.012.004.024.004.035.007h.012c.012 0 .027.004.043.004.012 0 .031 0 .043-.004h.012a.092.092 0 0 0 .031-.007l.016-.004a.072.072 0 0 1 .027-.008h.016c.007-.004.02-.008.035-.016 0 0 .004-.004.008-.004.015-.007.027-.011.043-.02 0-.003.003-.003.007-.007.012-.004.016-.008.028-.016.004-.004.011-.007.011-.011a.03.03 0 0 0 .016-.008l6.715-5.735Zm0 0"/></svg>