<svg width="288" height="288" xmlns="http://www.w3.org/2000/svg"><svg xmlns="http://www.w3.org/2000/svg" width="288" height="288" viewBox="0 0 64 100"><path fill="#4a61dd" d="M32 .063c-17.676 0-32 14.285-32 31.91 0 7.601 2.68 14.57 7.133 20.047 1.433 1.765 3.836 4.539 5.086 6.437 7.21 10.922 16.457 26.777 19.148 39.793.465 2.223 1.02 2.262 1.621.07 1.922-7.015 6.907-22.347 17.2-38.39 1.23-1.914 3.718-4.594 5.261-6.258a32.135 32.135 0 0 0 5.516-8.203C62.895 41.355 64 36.8 64 31.977 64 14.347 49.672.062 32 .062Zm0 49.152c-9.867 0-17.863-7.977-17.863-17.813 0-9.836 7.996-17.808 17.863-17.808 9.863 0 17.86 7.972 17.86 17.808 0 9.836-7.997 17.813-17.86 17.813Zm0 0" class="color010002 svgShape"/><path fill="#4a61dd" d="M39.426 30.773c0 4.09-3.324 7.407-7.426 7.407-4.105 0-7.43-3.317-7.43-7.407 0-4.093 3.325-7.41 7.43-7.41 4.102 0 7.426 3.317 7.426 7.41Zm0 0" class="color010002 svgShape"/></svg></svg>