<svg width="288" height="288" xmlns="http://www.w3.org/2000/svg"><svg xmlns="http://www.w3.org/2000/svg" width="288" height="288" viewBox="0 0 400.001 400"><path d="M373.509 51.66H352.76V33.114c0-7.312-5.932-13.246-13.246-13.246H60.485c-7.314 0-13.246 5.935-13.246 13.246v68.875c0 7.316 5.932 13.245 13.246 13.245h279.029c7.314 0 13.246-5.929 13.246-13.245V78.146h20.749v243.711H352.76v-23.842c0-7.316-5.932-13.246-13.246-13.246H60.485c-7.314 0-13.246 5.93-13.246 13.246v23.842H26.491v-108.61H47.24v21.19c0 7.313 5.932 13.244 13.246 13.244h279.029c7.314 0 13.246-5.931 13.246-13.244v-68.872c0-7.315-5.932-13.245-13.246-13.245H60.485c-7.314 0-13.246 5.93-13.246 13.245v21.19H26.491C11.885 186.756 0 198.64 0 213.246v108.609c0 14.606 11.884 26.486 26.491 26.486H47.24v18.546c0 7.313 5.932 13.246 13.246 13.246h279.029c7.314 0 13.246-5.935 13.246-13.246v-18.546h20.749c14.606 0 26.491-11.88 26.491-26.486V78.148C400 63.54 388.115 51.66 373.509 51.66zM109.052 88.304c-11.462 0-20.751-9.293-20.751-20.75 0-11.462 9.29-20.751 20.751-20.751 11.459 0 20.749 9.289 20.749 20.751 0 11.457-9.29 20.75-20.749 20.75zm110.815-7.506c0 5.483-4.448 9.931-9.937 9.931-5.485 0-9.933-4.447-9.933-9.931V54.31c0-5.488 4.446-9.936 9.933-9.936s9.937 4.447 9.937 9.936v26.488zm44.149 0c0 5.483-4.445 9.931-9.933 9.931-5.485 0-9.933-4.447-9.933-9.931V54.31c0-5.488 4.446-9.936 9.933-9.936s9.933 4.447 9.933 9.936v26.488zm44.151 0c0 5.483-4.446 9.931-9.935 9.931-5.486 0-9.934-4.447-9.934-9.931V54.31c0-5.488 4.446-9.936 9.934-9.936 5.486 0 9.935 4.447 9.935 9.936v26.488zM288.3 186.759c0-5.486 4.446-9.936 9.934-9.936 5.486 0 9.935 4.449 9.935 9.936v26.488c0 5.486-4.446 9.937-9.935 9.937-5.486 0-9.934-4.449-9.934-9.937v-26.488zm-44.15 0c0-5.486 4.446-9.936 9.933-9.936s9.933 4.449 9.933 9.936v26.488c0 5.486-4.445 9.937-9.933 9.937-5.485 0-9.933-4.449-9.933-9.937v-26.488zm-44.15 0c0-5.486 4.447-9.936 9.934-9.936 5.485 0 9.936 4.449 9.936 9.936v26.488c0 5.486-4.448 9.937-9.936 9.937-5.486 0-9.934-4.45-9.934-9.937v-26.488zm-90.948-7.509c11.459 0 20.749 9.29 20.749 20.752s-9.29 20.752-20.749 20.752c-11.462 0-20.751-9.29-20.751-20.752s9.289-20.752 20.751-20.752zm0 173.953c-11.462 0-20.751-9.289-20.751-20.751 0-11.457 9.29-20.75 20.751-20.75 11.459 0 20.749 9.293 20.749 20.75 0 11.462-9.29 20.751-20.749 20.751zm110.815-7.507c0 5.487-4.448 9.936-9.937 9.936-5.485 0-9.933-4.446-9.933-9.936v-26.488c0-5.481 4.446-9.93 9.933-9.93s9.937 4.445 9.937 9.93v26.488zm44.149 0c0 5.487-4.445 9.936-9.933 9.936-5.485 0-9.933-4.446-9.933-9.936v-26.488c0-5.481 4.446-9.93 9.933-9.93s9.933 4.445 9.933 9.93v26.488zm44.151 0c0 5.487-4.446 9.936-9.935 9.936-5.486 0-9.934-4.446-9.934-9.936v-26.488c0-5.481 4.446-9.93 9.934-9.93 5.486 0 9.935 4.445 9.935 9.93v26.488z" fill="#4a61dd" class="color000 svgShape"/></svg></svg>