<svg xmlns="http://www.w3.org/2000/svg" width="16" height="16"><path style="stroke:none;fill-rule:nonzero;fill:#4a61dd;fill-opacity:1" d="M15.828 12.133c-.594-1.125-2.664-2.344-2.754-2.399a1.631 1.631 0 0 0-.804-.23 1 1 0 0 0-.891.496c-.305.363-.68.785-.77.852-.703.476-1.257.421-1.867-.188L5.336 7.258c-.606-.606-.664-1.164-.188-1.867.067-.09.489-.465.852-.77a.984.984 0 0 0 .457-.59c.094-.336.023-.726-.191-1.11C6.215 2.837 4.992.767 3.867.172A1.455 1.455 0 0 0 2.148.43l-.753.754C.203 2.37-.227 3.723.113 5.19c.282 1.227 1.11 2.532 2.457 3.88l4.36 4.359C8.637 15.137 10.262 16 11.762 16c1.101 0 2.133-.469 3.054-1.395l.754-.75a1.457 1.457 0 0 0 .258-1.722Zm0 0"/></svg>