<svg width="288" height="288" xmlns="http://www.w3.org/2000/svg"><svg xmlns="http://www.w3.org/2000/svg" width="288" height="288" viewBox="0 0 394 394"><path d="M382.613 351H57.086l58.398-70.05.96.304a26.206 26.206 0 0 0 7.932 1.223c13.223 0 24.417-9.884 26.039-22.991l.124-1 55.106-14.882.61.8c5.017 6.562 12.621 10.325 20.863 10.325 14.475 0 26.247-11.773 26.247-26.247 0-10.703-6.403-20.241-16.315-24.3l-.933-.381v-54.136l.933-.381c9.881-4.043 16.285-13.549 16.315-24.217 0-.079 0-.158-.002-.237l-.041-1.486 72.546-31.74.723.7c4.928 4.781 11.416 7.414 18.272 7.414 14.474 0 26.248-11.775 26.248-26.249 0-14.474-11.774-26.249-26.248-26.249-14.43 0-26.204 11.738-26.25 26.166 0 .08.002.159.005.238l.038 1.486-72.545 31.74-.723-.701c-4.928-4.78-11.417-7.413-18.271-7.413-14.475 0-26.248 11.775-26.248 26.249 0 10.704 6.402 20.242 16.316 24.3l.932.38V203.8l-.934.382c-8.771 3.59-14.944 11.652-16.107 21.041l-.123 1-55.105 14.883-.61-.797c-5.017-6.562-12.621-10.328-20.863-10.328-14.474 0-26.249 11.774-26.249 26.248a25.93 25.93 0 0 0 3.06 12.302l.474.891-54.048 64.832V8a8 8 0 0 0-8-8h-11a8 8 0 0 0-8 8v29.5h-9.225a8 8 0 0 0-8 8v2a8 8 0 0 0 8 8h9.225v72h-9.225a8 8 0 0 0-8 8v2a8 8 0 0 0 8 8h9.225v72h-9.225a8 8 0 0 0-8 8v2a8 8 0 0 0 8 8h9.225v72h-9.225a8 8 0 0 0-8 8v2a8 8 0 0 0 8 8h9.225V370a8 8 0 0 0 8 8h59.015v8a8 8 0 0 0 8 8h2a8 8 0 0 0 8-8v-8h72v8a8 8 0 0 0 8 8h2a8 8 0 0 0 8-8v-8h72v8a8 8 0 0 0 8 8h2a8 8 0 0 0 8-8v-8h72v8a8 8 0 0 0 8 8h2a8 8 0 0 0 8-8v-8h6.983a8 8 0 0 0 8-8v-11a7.996 7.996 0 0 0-7.997-8z" fill="#4a61dd" class="color000 svgShape"/></svg></svg>