<?xml version="1.0" standalone="no"?>
<!DOCTYPE svg PUBLIC "-//W3C//DTD SVG 20010904//EN"
 "http://www.w3.org/TR/2001/REC-SVG-20010904/DTD/svg10.dtd">
<svg version="1.0" xmlns="http://www.w3.org/2000/svg"
 width="200.000000pt" height="200.000000pt" viewBox="0 0 200.000000 200.000000"
 preserveAspectRatio="xMidYMid meet">
<metadata>
Created by potrace 1.14, written by Peter Selinger 2001-2017
</metadata>
<g transform="translate(0.000000,200.000000) scale(0.100000,-0.100000)"
fill="#000000" stroke="none">
<path d="M891 1979 c-98 -44 -198 -159 -257 -295 l-29 -65 -75 8 c-271 29
-446 -22 -512 -150 -29 -59 -22 -170 17 -247 33 -66 103 -166 139 -199 33 -31
33 -38 -5 -77 -37 -38 -34 -56 12 -79 31 -17 32 -16 64 15 37 36 35 37 115
-29 31 -26 79 -62 107 -81 47 -31 53 -40 58 -80 4 -25 16 -85 27 -133 15 -67
17 -92 9 -100 -8 -8 -61 -12 -159 -12 -138 0 -150 2 -204 27 -65 30 -88 60
-95 122 -5 40 -9 45 -42 55 -20 7 -42 15 -48 17 -10 4 -13 -11 -13 -61 0 -110
52 -180 170 -228 50 -20 71 -22 246 -22 l191 0 42 -85 c53 -108 115 -186 187
-236 55 -38 59 -39 154 -42 87 -3 102 -1 146 21 87 44 201 184 250 306 l17 43
54 -5 53 -6 0 40 c0 21 0 42 0 47 1 4 -14 9 -32 12 -38 6 -38 -1 -9 137 11 55
21 111 21 122 0 14 16 33 46 54 26 17 80 58 121 91 l74 59 30 -29 c42 -40 116
-153 134 -204 30 -86 10 -158 -54 -196 -22 -13 -29 -23 -25 -34 4 -8 9 -27 12
-42 2 -16 9 -28 15 -28 25 0 100 55 127 92 27 38 30 48 30 123 0 46 -6 100
-14 123 -19 54 -77 144 -137 213 l-48 56 25 24 c44 41 116 141 145 204 25 52
29 72 29 148 0 56 -5 98 -14 115 -59 112 -237 167 -464 142 -63 -6 -115 -10
-117 -8 -1 2 -10 18 -19 35 l-16 33 -45 -22 c-28 -14 -44 -27 -40 -35 3 -7 8
-19 11 -27 4 -10 -9 -17 -48 -26 -29 -7 -97 -28 -150 -46 l-97 -34 -78 29
c-43 15 -108 36 -145 46 -38 10 -68 22 -68 27 0 24 87 174 127 218 60 67 119
94 186 87 48 -6 55 -4 85 23 17 16 32 32 32 35 0 2 -16 12 -36 20 -53 22 -159
19 -213 -6z m190 -15 c23 -14 -13 -28 -74 -29 -100 -2 -174 -54 -251 -179 -40
-63 -92 -175 -84 -181 2 -1 41 -12 88 -24 47 -13 120 -36 164 -52 l78 -28 112
38 c61 21 137 44 169 51 46 11 57 17 51 29 -16 39 -15 48 4 53 16 4 23 -1 33
-24 l12 -30 71 9 c39 4 125 8 191 7 137 -1 209 -22 272 -77 114 -100 75 -284
-99 -472 l-55 -60 56 -62 c138 -152 190 -303 142 -409 -20 -44 -83 -100 -101
-89 -18 11 -11 31 21 54 62 46 74 127 35 223 -26 64 -97 167 -149 217 l-36 34
-58 -50 c-32 -27 -92 -75 -134 -105 l-76 -56 -7 -58 c-4 -33 -16 -98 -27 -146
-11 -48 -20 -91 -20 -95 0 -5 15 -10 33 -13 25 -4 34 -11 36 -27 3 -21 0 -22
-30 -17 -18 3 -38 7 -45 9 -6 2 -34 -43 -62 -100 -58 -119 -146 -222 -220
-259 -172 -86 -339 15 -461 277 l-39 85 -48 -10 c-26 -6 -104 -11 -173 -11
-103 -1 -137 2 -195 20 -116 37 -175 101 -175 192 0 33 3 38 19 34 13 -3 21
-17 25 -42 20 -130 175 -189 421 -161 63 7 115 14 115 17 0 3 -9 39 -19 81
-11 43 -25 111 -31 153 l-12 77 -62 43 c-33 23 -94 69 -134 102 l-74 60 -36
-36 c-32 -31 -39 -34 -54 -23 -16 12 -14 16 17 46 19 19 35 39 35 45 0 6 -16
27 -36 46 -53 50 -124 153 -150 217 -28 67 -32 167 -10 211 23 43 78 87 143
112 48 18 79 22 178 23 66 1 152 -3 190 -7 l70 -8 43 94 c71 154 152 242 255
279 50 18 131 19 158 2z"/>
<path d="M280 1563 c-134 -22 -210 -90 -210 -185 1 -81 82 -229 173 -317 l36
-34 49 44 c27 24 87 71 134 104 l85 60 7 59 c4 32 18 101 32 154 13 53 23 97
21 98 -1 2 -41 8 -87 13 -83 11 -190 12 -240 4z m238 -30 c52 -6 54 -7 48 -32
-4 -14 -16 -77 -28 -140 l-23 -113 -42 -29 c-23 -16 -77 -57 -119 -90 l-76
-61 -30 29 c-43 41 -116 154 -135 208 -41 121 11 194 162 228 32 7 185 7 243
0z"/>
<path d="M1470 1559 c-35 -5 -66 -12 -68 -14 -2 -2 6 -41 17 -87 11 -46 26
-115 32 -155 12 -72 12 -72 64 -107 29 -19 90 -65 135 -101 l82 -67 25 23 c37
36 112 138 139 191 73 144 39 257 -93 303 -59 20 -242 28 -333 14z m295 -34
c77 -20 121 -55 135 -104 13 -48 5 -90 -31 -166 -27 -57 -122 -185 -137 -185
-4 0 -37 24 -73 53 -36 29 -89 68 -117 87 -50 34 -51 36 -62 105 -7 39 -18 95
-26 126 -21 83 -19 87 24 92 96 10 232 6 287 -8z"/>
<path d="M650 1517 c-14 -33 -38 -135 -46 -196 l-7 -53 54 32 c30 17 107 58
172 90 95 48 114 61 100 68 -23 12 -97 36 -191 61 l-73 20 -9 -22z m138 -43
c46 -14 82 -26 81 -28 -26 -19 -237 -121 -234 -113 2 7 11 47 20 90 12 58 20
77 33 77 9 0 54 -12 100 -26z"/>
<path d="M1197 1496 c-60 -18 -113 -38 -118 -43 -6 -6 29 -29 98 -62 59 -29
134 -68 166 -88 32 -19 60 -33 62 -31 4 4 -27 164 -43 223 -11 41 -35 41 -165
1z m142 -33 c17 -62 32 -136 29 -137 -2 -1 -57 26 -123 61 -66 34 -115 63
-110 63 6 0 46 12 90 25 44 13 85 24 92 24 7 1 17 -16 22 -36z"/>
<path d="M906 1385 c-53 -24 -145 -72 -205 -105 l-109 -62 -6 -45 c-8 -59 -8
-273 0 -341 7 -51 8 -53 63 -86 75 -46 258 -139 314 -161 l46 -17 117 56 c65
31 157 79 204 106 l87 50 7 76 c7 94 7 242 -2 308 -7 48 -9 51 -72 89 -72 44
-231 126 -301 156 l-46 19 -97 -43z m259 -62 c50 -25 120 -63 156 -85 66 -38
66 -39 73 -91 8 -67 8 -203 0 -288 l-7 -66 -101 -56 c-164 -91 -273 -139 -299
-131 -31 9 -230 108 -304 152 l-62 35 -6 62 c-12 109 -2 332 15 349 22 21 186
110 286 155 99 45 82 47 249 -36z"/>
<path d="M935 1169 c-48 -18 -94 -57 -115 -99 -85 -166 134 -329 298 -223 118
77 117 228 -3 299 -50 29 -134 40 -180 23z m156 -42 c114 -59 111 -210 -5
-266 -118 -58 -251 14 -251 136 0 121 138 191 256 130z"/>
<path d="M948 1074 c-73 -39 -63 -138 17 -164 67 -22 135 20 135 83 0 39 -15
64 -50 82 -36 19 -67 19 -102 -1z"/>
<path d="M433 1101 c-48 -37 -96 -77 -106 -88 -18 -20 -17 -22 35 -65 62 -53
161 -128 168 -128 3 0 5 79 5 175 0 96 -3 175 -7 175 -3 0 -46 -31 -95 -69z
m69 -101 c-2 -66 -6 -120 -9 -120 -3 0 -37 25 -75 56 -60 48 -67 58 -56 71 10
12 137 113 142 113 1 0 0 -54 -2 -120z"/>
<path d="M1470 994 l0 -176 28 17 c30 20 118 89 170 133 l34 28 -54 45 c-67
57 -163 129 -171 129 -4 0 -7 -79 -7 -176z m123 56 c65 -52 67 -55 49 -70 -11
-8 -47 -37 -81 -63 l-61 -48 0 127 c0 99 3 124 13 117 6 -5 43 -33 80 -63z"/>
<path d="M600 701 c0 -24 26 -151 42 -204 12 -38 13 -39 50 -33 37 6 224 63
242 73 4 3 -45 32 -110 63 -66 32 -143 72 -171 89 -49 29 -53 30 -53 12z m158
-99 l113 -58 -88 -27 c-48 -15 -93 -27 -99 -27 -6 0 -18 33 -27 73 -16 67 -21
97 -14 97 1 0 53 -26 115 -58z"/>
<path d="M1345 689 c-27 -17 -99 -55 -159 -85 -60 -30 -112 -56 -114 -59 -3
-2 8 -9 24 -15 46 -18 230 -70 246 -70 11 0 21 28 37 98 31 142 34 162 25 161
-5 0 -31 -14 -59 -30z m7 -119 c-17 -73 -19 -75 -46 -72 -15 2 -60 13 -99 25
l-72 23 115 60 c63 34 116 56 117 50 2 -6 -5 -45 -15 -86z"/>
<path d="M931 495 c-36 -13 -108 -36 -160 -51 -53 -15 -97 -28 -99 -29 -8 -7
55 -137 95 -197 98 -149 216 -198 333 -138 59 30 142 129 189 224 32 63 48 86
62 86 33 0 21 19 -18 29 -21 5 -67 17 -102 26 -35 9 -100 30 -145 46 -44 16
-82 29 -85 28 -3 0 -35 -11 -70 -24z m222 -53 l148 -49 -41 -81 c-69 -137
-172 -231 -255 -232 -50 0 -128 43 -173 96 -41 47 -130 209 -121 219 3 2 43
16 90 29 46 13 107 33 134 44 28 11 55 20 60 21 6 0 77 -21 158 -47z"/>
<path d="M1144 1935 c-137 -82 -69 -268 98 -267 162 2 218 199 78 273 -51 27
-125 25 -176 -6z m167 -21 c37 -19 59 -57 59 -105 0 -33 -6 -47 -33 -74 -44
-44 -93 -53 -153 -30 -51 19 -84 62 -84 108 0 98 112 152 211 101z"/>
<path d="M1185 1855 c-30 -29 -31 -45 -4 -79 15 -19 30 -26 54 -26 34 0 75 36
75 67 0 23 -47 63 -75 63 -14 0 -37 -11 -50 -25z"/>
<path d="M60 873 c-41 -15 -60 -46 -60 -98 0 -70 30 -100 100 -100 40 0 54 5
79 29 38 37 46 68 26 111 -24 49 -93 77 -145 58z m85 -29 c8 -4 23 -20 31 -36
39 -75 -60 -142 -130 -87 -71 56 9 157 99 123z"/>
<path d="M70 795 c-20 -24 -8 -50 24 -50 36 0 56 26 37 49 -17 20 -45 21 -61
1z"/>
<path d="M1602 513 c-69 -34 -93 -109 -55 -174 64 -108 253 -59 253 66 0 95
-107 153 -198 108z m144 -44 c33 -31 34 -96 1 -127 -47 -45 -120 -47 -161 -5
-28 28 -35 78 -16 113 28 53 129 64 176 19z"/>
<path d="M1626 434 c-32 -32 -13 -74 34 -74 32 0 50 17 50 47 0 38 -55 56 -84
27z"/>
</g>
</svg>
