<svg xmlns="http://www.w3.org/2000/svg" width="64" height="64"><path style="stroke:none;fill-rule:nonzero;fill:#4a61dd;fill-opacity:1" d="M45.047 22.957a.759.759 0 0 0-.879-.617l-2.727.48a10.266 10.266 0 0 0-1.242-2.144l1.781-2.125a.777.777 0 0 0 .176-.555.78.78 0 0 0-.27-.516L39.5 15.477a.756.756 0 0 0-.555-.172.758.758 0 0 0-.515.265l-1.782 2.125c-.73-.375-1.511-.66-2.332-.851v-2.77a.759.759 0 0 0-.757-.758H30.44a.759.759 0 0 0-.757.758v2.77c-.82.191-1.602.476-2.332.851L25.57 15.57a.761.761 0 0 0-1.07-.093l-2.387 2.003a.758.758 0 0 0-.265.516c-.02.2.043.399.172.555l1.785 2.125a9.933 9.933 0 0 0-1.242 2.144l-2.731-.48a.763.763 0 0 0-.879.617l-.543 3.066c-.035.2.012.403.13.57a.744.744 0 0 0 .487.313l2.73.48c.044.844.192 1.665.43 2.442l-2.398 1.387a.752.752 0 0 0-.355.46.772.772 0 0 0 .074.575l1.558 2.7c.102.175.266.3.461.355a.867.867 0 0 0 .2.023.726.726 0 0 0 .378-.101l2.403-1.387a10.35 10.35 0 0 0 1.898 1.597l-.949 2.602a.753.753 0 0 0 .027.582.755.755 0 0 0 .426.395l2.93 1.062a.764.764 0 0 0 .973-.453l.949-2.605c.406.05.82.074 1.238.074a9.99 9.99 0 0 0 1.238-.074l.95 2.605a.762.762 0 0 0 .714.5.734.734 0 0 0 .258-.047l2.93-1.062a.774.774 0 0 0 .43-.395.77.77 0 0 0 .023-.582l-.95-2.602c.7-.457 1.337-.992 1.9-1.597l2.402 1.387c.117.07.25.101.378.101a.867.867 0 0 0 .2-.023.766.766 0 0 0 .46-.356l1.555-2.699a.755.755 0 0 0-.277-1.035l-2.398-1.387a10.15 10.15 0 0 0 .43-2.441l2.73-.48a.752.752 0 0 0 .488-.313.762.762 0 0 0 .129-.57ZM32 30.898a4.179 4.179 0 1 1 0-8.355 4.179 4.179 0 1 1 0 8.355Zm0 0"/><path style="stroke:none;fill-rule:nonzero;fill:#4a61dd;fill-opacity:1" d="M58.668 3.996H5.332A5.336 5.336 0 0 0 0 9.324V44.09a5.336 5.336 0 0 0 5.332 5.332h17.184l-3.262 7.191a2.407 2.407 0 0 0 .168 2.293 2.405 2.405 0 0 0 2.02 1.098h21.12a2.402 2.402 0 0 0 2.402-2.399c0-.398-.098-.777-.274-1.109l-3.207-7.074h17.184A5.336 5.336 0 0 0 64 44.09V9.324a5.336 5.336 0 0 0-5.332-5.328Zm.531 40.094a.532.532 0 0 1-.531.531H5.332a.532.532 0 0 1-.531-.531V9.324a.53.53 0 0 1 .531-.527h53.336a.53.53 0 0 1 .531.527Zm0 0"/></svg>