<svg xmlns="http://www.w3.org/2000/svg" width="75" height="75"><path style="stroke:none;fill-rule:nonzero;fill:#7ab55c;fill-opacity:1" d="m47.93 74.934 22.547-4.88s-8.137-55.038-8.204-55.406c-.054-.359-.355-.597-.656-.597-.304 0-6.031-.426-6.031-.426s-3.984-3.98-4.496-4.41a1.266 1.266 0 0 0-.38-.23l-2.855 65.949ZM36.594 35.328s-2.532-1.324-5.543-1.324c-4.524 0-4.7 2.832-4.7 3.566 0 3.848 10.126 5.36 10.126 14.465 0 7.172-4.5 11.75-10.645 11.75-7.355 0-11.062-4.578-11.062-4.578l2.02-6.52s3.89 3.333 7.124 3.333c2.11 0 3.047-1.704 3.047-2.915 0-5.058-8.297-5.292-8.297-13.62-.105-6.993 4.91-13.801 15.086-13.801 3.93 0 5.86 1.128 5.86 1.128l-2.954 8.485ZM34.906 2.594c.426 0 .848.117 1.266.422-3.074 1.453-6.45 5.12-7.836 12.476a196.22 196.22 0 0 1-5.906 1.805c1.625-5.578 5.543-14.672 12.476-14.672Zm3.86 9.215v.421c-2.356.727-4.946 1.512-7.48 2.301 1.456-5.554 4.163-8.265 6.515-9.285.601 1.566.965 3.676.965 6.563Zm1.683-6.98c2.168.23 3.567 2.71 4.465 5.484-1.09.355-2.297.722-3.617 1.144v-.789c0-2.348-.3-4.285-.848-5.848Zm9.352 4.026c-.063 0-.188.067-.246.067-.055 0-.903.234-2.23.656-1.321-3.851-3.677-7.406-7.837-7.406h-.36C37.923.652 36.466 0 35.204 0 25.496 0 20.86 12.117 19.406 18.27c-3.73 1.14-6.445 1.988-6.75 2.105-2.11.664-2.168.727-2.414 2.719-.234 1.445-5.719 43.945-5.719 43.945L46.903 75Zm0 0"/></svg>