<svg width="288" height="288" xmlns="http://www.w3.org/2000/svg"><svg xmlns="http://www.w3.org/2000/svg" width="288" height="288" viewBox="0 0 399.999 399.999"><path d="M366.684 24.972H33.316C14.946 24.972 0 39.917 0 58.289v217.272c0 18.371 14.946 33.317 33.316 33.317h107.413l-20.388 44.955a15 15 0 0 0 13.661 21.194h132.016c8.284 0 15-6.715 15-15 0-2.493-.607-4.848-1.686-6.916l-20.062-44.233h107.413c18.371 0 33.316-14.946 33.316-33.317V58.289c.001-18.372-14.945-33.317-33.315-33.317zM370 275.562a3.32 3.32 0 0 1-3.316 3.316H33.316A3.319 3.319 0 0 1 30 275.562V58.289a3.32 3.32 0 0 1 3.316-3.317h333.367a3.32 3.32 0 0 1 3.316 3.317L370 275.562z" fill="#4a61dd" class="color000 svgShape"/><path d="M72.841 162.757c9.432 1.062 18.352-2.362 24.63-8.564l81.918 29.438c.847 14.404 11.967 26.578 26.782 28.246 16.561 1.867 31.552-10.088 33.418-26.647.132-1.175.188-2.34.184-3.496l69.132-50.434a30.025 30.025 0 0 0 11.484 3.726c16.563 1.866 31.555-10.089 33.418-26.649 1.866-16.561-10.089-31.552-26.646-33.418-16.563-1.867-31.552 10.088-33.417 26.648a29.992 29.992 0 0 0 2.161 15.04l-63.042 45.991c-4.817-5.848-11.816-9.913-19.922-10.827-11.481-1.292-22.203 4.06-28.324 12.979l-78.424-28.184c.021-.167.05-.331.067-.5 1.867-16.561-10.088-31.552-26.647-33.416-16.562-1.867-31.553 10.088-33.419 26.648-1.868 16.559 10.087 31.552 26.647 33.419zM313.12 103.79c.66-5.878 5.979-10.117 11.854-9.457 5.876.663 10.12 5.98 9.457 11.858-.663 5.875-5.98 10.117-11.856 9.455-5.876-.66-10.118-5.982-9.455-11.856zm-114.223 76.853c.662-5.874 5.982-10.117 11.856-9.454 5.877.662 10.119 5.981 9.458 11.856-.664 5.877-5.982 10.118-11.859 9.456-5.873-.663-10.116-5.98-9.455-11.858zM65.568 131.521c.663-5.876 5.983-10.118 11.858-9.456 5.877.663 10.118 5.981 9.456 11.858-.662 5.876-5.982 10.117-11.857 9.454-5.878-.661-10.119-5.981-9.457-11.856z" fill="#4a61dd" class="color000 svgShape"/><path d="M323.797 151.467c-1.494 0-3.008-.087-4.5-.253a39.849 39.849 0 0 1-9.256-2.178l-60.836 44.382c-2.551 19.944-19.48 34.901-39.629 34.901-1.494 0-3.008-.084-4.498-.253a39.874 39.874 0 0 1-34.479-30.733l-71.17-25.576a39.633 39.633 0 0 1-23.186 7.441h-.002c-1.493 0-3.005-.086-4.494-.252-10.389-1.173-19.401-6.253-25.749-13.603v98.396h308V137.665c-7.356 8.498-18.207 13.802-30.201 13.802z" fill="#4a61dd" class="color000 svgShape"/></svg></svg>