<svg width="288" height="288" xmlns="http://www.w3.org/2000/svg"><svg xmlns="http://www.w3.org/2000/svg" width="288" height="288" viewBox="0 0 392.186 392.186"><path d="M368.62 17.951H23.568C10.572 17.951 0 28.524 0 41.52v309.146c0 12.996 10.572 23.568 23.568 23.568h345.053c12.994 0 23.564-10.572 23.564-23.568V41.521c.003-12.996-10.571-23.57-23.565-23.57zm-71.06 39.577a8.702 8.702 0 0 1 8.701-8.702h8.703a8.7 8.7 0 0 1 8.701 8.702v9.863a8.702 8.702 0 0 1-8.701 8.702h-8.703a8.702 8.702 0 0 1-8.701-8.702v-9.863zm-40.467 0a8.703 8.703 0 0 1 8.703-8.702h8.701a8.702 8.702 0 0 1 8.703 8.702v9.863a8.702 8.702 0 0 1-8.703 8.702h-8.701a8.703 8.703 0 0 1-8.703-8.702v-9.863zm106.81 288.423H28.282V102.235h335.621v243.716zm.229-278.56a8.702 8.702 0 0 1-8.701 8.702h-8.703a8.701 8.701 0 0 1-8.702-8.702v-9.863a8.702 8.702 0 0 1 8.702-8.702h8.703a8.701 8.701 0 0 1 8.701 8.702v9.863z" fill="#4a61dd" class="color000 svgShape"/><path d="m142.915 245.672-9.943 57.978a7.623 7.623 0 0 0 3.029 7.453 7.633 7.633 0 0 0 8.029.577l52.063-27.363 52.063 27.363a7.616 7.616 0 0 0 11.057-8.03l-9.942-57.978 42.118-41.05a7.626 7.626 0 0 0-4.22-13.01l-58.211-8.451-26.029-52.745a7.613 7.613 0 0 0-6.834-4.249 7.616 7.616 0 0 0-6.834 4.249l-26.029 52.745-58.211 8.451a7.63 7.63 0 0 0-6.152 5.19 7.644 7.644 0 0 0 1.93 7.82l42.116 41.05z" fill="#4a61dd" class="color000 svgShape"/></svg></svg>