<?xml version="1.0" encoding="UTF-8"?>
<svg xmlns="http://www.w3.org/2000/svg" xmlns:xlink="http://www.w3.org/1999/xlink" width="64px" height="px" viewBox="0 0 63 37" version="1.1">
<g id="surface1">
<path style=" stroke:none;fill-rule:nonzero;fill:rgb(0%,0%,0%);fill-opacity:1;" d="M 6.367188 -0.0078125 C 2.917969 1.585938 -1.160156 0.0585938 -2.742188 -3.414062 C -4.324219 -6.886719 -2.808594 -10.992188 0.640625 -12.582031 L 0.640625 6.722656 C 0.640625 9.925781 3.214844 12.515625 6.390625 12.515625 L 30.1875 12.515625 L 41.0625 18.613281 L 38.589844 12.515625 L 56.609375 12.515625 C 59.785156 12.515625 62.359375 9.925781 62.359375 6.722656 L 62.359375 5.785156 C 62.359375 2.585938 59.789062 -0.0078125 56.609375 -0.0078125 Z M 27.144531 3.386719 C 27.644531 3.390625 28.101562 3.570312 28.523438 3.90625 C 28.640625 2.871094 29.527344 2.101562 30.5625 2.140625 C 31.59375 2.179688 32.425781 3.015625 32.464844 4.054688 C 32.503906 5.09375 31.738281 5.992188 30.710938 6.109375 C 29.726562 7.9375 28.921875 11.011719 28.265625 15.277344 C 27.632812 19.421875 27.40625 22.648438 27.558594 24.960938 C 27.609375 25.59375 27.507812 26.152344 27.253906 26.636719 C 21.625 26.382812 17.261719 21.582031 17.511719 15.914062 C 17.765625 10.246094 22.53125 5.855469 28.160156 6.109375 C 27.507812 6.160156 26.824219 5.855469 26.167969 5.171875 C 23.820312 2.753906 21.953125 -0.851562 20.589844 -5.652344 C 23.070312 -1.769531 25.492188 2.152344 27.855469 6.109375 C 26.371094 8.980469 25.105469 10.453125 24.046875 10.53125 C 23.367188 10.582031 22.785156 9.996094 22.28125 8.777344 C 20.996094 5.449219 19.605469 -0.980469 18.117188 -10.507812 C 18.039062 -11.167969 18.167969 -11.75 18.519531 -12.207031 C 18.871094 -12.691406 19.40625 -12.945312 20.109375 -12.996094 C 21.394531 -13.097656 22.128906 -12.488281 22.304688 -11.167969 C 23.085938 -5.855469 23.945312 -1.359375 24.855469 2.324219 L 15.578125 9.191406 C 16.082031 8.226562 16.710938 7.714844 17.472656 7.667969 C 18.578125 7.589844 19.261719 8.300781 19.539062 9.800781 C 20.171875 13.179688 20.980469 16.050781 21.9375 18.488281 C 22.589844 12.039062 23.703125 7.386719 25.265625 4.515625 C 25.648438 3.804688 26.199219 3.449219 26.933594 3.398438 C 27.675781 6.296875 25.945312 9.25 23.070312 10 C 20.191406 10.746094 17.257812 9.003906 16.515625 6.109375 Z M 36.75 6.140625 C 37.179688 6.140625 37.632812 6.191406 38.113281 6.292969 C 39.878906 6.671875 41.238281 7.640625 42.148438 9.238281 C 42.957031 10.609375 43.359375 12.261719 43.359375 14.242188 C 43.359375 16.859375 42.703125 19.25 41.390625 21.433594 C 39.878906 23.972656 37.910156 25.246094 35.464844 25.246094 C 35.035156 25.246094 34.578125 25.191406 34.101562 25.09375 C 32.308594 24.710938 30.96875 23.746094 30.0625 22.144531 C 29.253906 20.746094 28.851562 19.070312 28.851562 17.113281 C 28.851562 14.5 29.507812 12.109375 30.820312 9.949219 C 32.359375 7.410156 34.328125 6.140625 36.75 6.140625 Z M 52.570312 6.140625 C 53 6.140625 53.453125 6.191406 53.933594 6.292969 C 55.722656 6.671875 57.058594 7.640625 57.972656 9.238281 C 58.777344 10.609375 59.179688 12.261719 59.179688 14.242188 C 59.179688 16.859375 58.527344 19.25 57.210938 21.433594 C 55.699219 23.972656 53.730469 25.246094 51.285156 25.246094 C 50.855469 25.246094 50.398438 25.191406 49.921875 25.09375 C 48.128906 24.710938 46.792969 23.746094 45.882812 22.144531 C 45.074219 20.746094 44.671875 19.070312 44.671875 17.113281 C 44.671875 14.5 45.328125 12.109375 46.640625 9.949219 C 48.179688 7.410156 50.148438 6.140625 52.570312 6.140625 Z M 36.863281 10.398438 C 36.074219 10.394531 35.304688 10.917969 34.578125 12.007812 C 34.710938 9.703125 35.800781 7.5625 37.582031 6.109375 C 37.453125 6.691406 37.40625 7.324219 37.40625 7.960938 C 37.40625 8.695312 37.558594 9.488281 37.859375 10.273438 C 38.238281 11.261719 38.742188 11.800781 39.347656 11.925781 C 39.980469 12.054688 40.660156 11.769531 41.394531 11.109375 C 42.328125 10.273438 42.957031 9.027344 43.308594 7.351562 C 43.4375 6.769531 43.488281 6.132812 43.488281 5.472656 C 42.769531 5.824219 41.988281 6.042969 41.191406 6.109375 C 40.808594 5.117188 40.304688 4.585938 39.699219 4.457031 C 39.945312 4.984375 39.929688 5.59375 39.664062 6.109375 Z M 52.6875 10.398438 C 51.894531 10.394531 51.128906 10.917969 50.398438 12.007812 C 50.53125 9.703125 51.625 7.5625 53.402344 6.109375 C 53.277344 6.691406 53.226562 7.324219 53.226562 7.960938 C 53.226562 8.695312 53.378906 9.488281 53.679688 10.273438 C 54.058594 11.261719 54.566406 11.800781 55.171875 11.925781 C 55.800781 12.054688 56.480469 11.769531 57.214844 11.109375 C 58.148438 10.273438 58.777344 9.027344 59.128906 7.351562 C 59.234375 6.769531 59.3125 6.132812 59.3125 5.472656 C 58.589844 5.824219 57.8125 6.042969 57.015625 6.109375 C 56.632812 5.117188 56.128906 4.585938 55.523438 4.457031 C 55.769531 4.984375 55.753906 5.59375 55.488281 6.109375 Z M 52.6875 10.398438 "/>
</g>
</svg>
